<svg width="417" height="152" viewBox="0 0 417 152" fill="none" xmlns="http://www.w3.org/2000/svg">
<path d="M0.0162513 30.688C-0.072433 20.1717 7.98895 11.6617 18.4678 10.7703C56.4531 7.53917 145.822 0.552734 208.412 0.552734C269.719 0.552734 356.72 7.25586 395.957 10.5671C407.415 11.5341 415.81 21.5336 414.098 32.904C410.417 57.3671 401.806 98.103 383.204 123.414C357.45 158.457 31.4998 163.547 14.1975 123.414C2.40929 96.0713 0.216583 54.4437 0.0162513 30.688Z" fill="#AAE8FF"/>
<mask id="mask0" mask-type="alpha" maskUnits="userSpaceOnUse" x="0" y="0" width="415" height="152">
<path d="M0.0162513 30.688C-0.072433 20.1717 7.98895 11.6617 18.4678 10.7703C56.4531 7.53917 145.822 0.552734 208.412 0.552734C269.719 0.552734 356.72 7.25586 395.957 10.5671C407.415 11.5341 415.81 21.5336 414.098 32.904C410.417 57.3671 401.806 98.103 383.204 123.414C357.45 158.457 31.4998 163.547 14.1975 123.414C2.40929 96.0713 0.216583 54.4437 0.0162513 30.688Z" fill="#AAE8FF"/>
</mask>
<g mask="url(#mask0)">
</g>
</svg>
